<?xml version="1.0" encoding="UTF-8" standalone="no"?>
<svg
   xmlns:dc="http://purl.org/dc/elements/1.1/"
   xmlns:cc="http://creativecommons.org/ns#"
   xmlns:rdf="http://www.w3.org/1999/02/22-rdf-syntax-ns#"
   xmlns:svg="http://www.w3.org/2000/svg"
   xmlns="http://www.w3.org/2000/svg"
   xmlns:sodipodi="http://sodipodi.sourceforge.net/DTD/sodipodi-0.dtd"
   xmlns:inkscape="http://www.inkscape.org/namespaces/inkscape"
   id="Layer_1"
   data-name="Layer 1"
   viewBox="0 0 1024 1024"
   version="1.1"
   sodipodi:docname="black.svg"
   inkscape:version="0.92.4 5da689c313, 2019-01-14">
  <metadata
     id="metadata14">
    <rdf:RDF>
      <cc:Work
         rdf:about="">
        <dc:format>image/svg+xml</dc:format>
        <dc:type
           rdf:resource="http://purl.org/dc/dcmitype/StillImage" />
      </cc:Work>
    </rdf:RDF>
  </metadata>
  <sodipodi:namedview
     pagecolor="#ffffff"
     bordercolor="#666666"
     borderopacity="1"
     objecttolerance="10"
     gridtolerance="10"
     guidetolerance="10"
     inkscape:pageopacity="0"
     inkscape:pageshadow="2"
     inkscape:window-width="1920"
     inkscape:window-height="1006"
     id="namedview12"
     showgrid="false"
     inkscape:zoom="0.23046875"
     inkscape:cx="520.67797"
     inkscape:cy="512"
     inkscape:window-x="0"
     inkscape:window-y="184"
     inkscape:window-maximized="1"
     inkscape:current-layer="Layer_1" />
  <defs
     id="defs4">
    <style
       id="style2">.cls-1{fill:#fff;}</style>
  </defs>
  <title
     id="title6">flogo-RGB-HEX-Blk-1024</title>
  <path
     d="M967.48,0h-911A56.51,56.51,0,0,0,0,56.52v911A56.51,56.51,0,0,0,56.52,1024H547V628H414V473H547V358.93c0-132.26,80.77-204.28,198.76-204.28,56.51,0,105.08,4.21,119.24,6.09V299l-81.37,0c-64.2,0-76.63,30.51-76.63,75.28V473H860.49l-20,155H707v396H967.48A56.51,56.51,0,0,0,1024,967.48v-911A56.51,56.51,0,0,0,967.48,0Z"
     id="path8" />
</svg>
